<svg width="24" height="20" viewBox="0 0 24 20" fill="none" xmlns="http://www.w3.org/2000/svg">
<path d="M22.5905 14.1938C22.2166 14.1938 21.8579 14.0452 21.5935 13.7808C21.3291 13.5164 21.1805 13.1578 21.1805 12.7838C21.1805 12.4098 21.3291 12.0512 21.5935 11.7868C21.8579 11.5223 22.2166 11.3738 22.5905 11.3738C22.9645 11.3738 23.3231 11.5223 23.5875 11.7868C23.852 12.0512 24.0005 12.4098 24.0005 12.7838C24.0005 13.1578 23.852 13.5164 23.5875 13.7808C23.3231 14.0452 22.9645 14.1938 22.5905 14.1938V14.1938ZM0.150518 17.6988C-0.0176297 18.033 -0.0461405 18.4203 0.0712573 18.7754C0.188655 19.1306 0.442345 19.4246 0.776518 19.5928C1.11069 19.7609 1.49797 19.7895 1.85317 19.6721C2.20836 19.5547 2.50237 19.301 2.67052 18.9668C2.67052 18.9668 10.5205 2.9548 16.9265 2.8178C21.1565 2.7278 21.1585 8.4598 21.1585 8.4598C21.1585 8.83375 21.3071 9.19239 21.5715 9.45682C21.8359 9.72124 22.1946 9.8698 22.5685 9.8698C22.9425 9.8698 23.3011 9.72124 23.5655 9.45682C23.83 9.19239 23.9785 8.83375 23.9785 8.4598C23.9785 8.4598 24.0355 0.0787966 16.9585 0.00279656C8.76452 -0.257203 0.152518 17.6988 0.152518 17.6988H0.150518Z" fill="white"/>
</svg>
