<svg width="24" height="26" viewBox="0 0 24 26" fill="none" xmlns="http://www.w3.org/2000/svg">
<path d="M8.73751 0.0028038L14.357 0C15.6302 2.14842 16.7035 4.41266 17.6189 6.73575C17.985 7.59885 18.3549 8.46196 18.652 9.35215C19.0966 10.6561 19.6571 11.9172 20.0821 13.2286C20.9172 15.9889 21.6551 18.7781 22.3968 21.5645C22.6733 22.6742 23.0562 23.7531 23.3056 24.8693C22.9124 24.9973 22.5173 25.1206 22.1249 25.2523C21.684 25.3924 21.2161 25.3784 20.7593 25.4176C20.1054 25.4811 19.4488 25.5222 18.794 25.5783L17.2172 24.491C17.1453 23.9894 17.1565 23.4766 17.0621 22.9768C16.7941 21.3749 16.3737 19.8018 15.8955 18.2503L7.12807 19.4674C7.06268 19.8196 6.99449 20.1727 6.92817 20.5258C6.63487 21.7775 6.70866 23.074 6.6302 24.349L4.6275 25.5848C4.49859 25.6838 4.33046 25.6297 4.1838 25.6278C3.68873 25.5783 3.19086 25.5801 2.69766 25.5204C2.19512 25.4578 1.65708 25.5474 1.18724 25.3195C0.793978 25.1365 0.388584 24.9795 0 24.7862C0.447429 22.6593 1.04245 20.566 1.62252 18.4717C2.33897 15.8591 3.19647 13.2875 4.07919 10.7271C5.31593 7.02626 6.88707 3.43748 8.73751 0.00281312V0.0028038ZM11.1727 7.54375C10.4432 9.66041 9.59875 11.7341 8.81784 13.8321L13.4808 11.2633C13.0269 9.99761 12.5692 8.73379 12.089 7.47836C11.9975 7.26632 11.906 6.99264 11.6537 6.93285C11.3539 6.96835 11.2661 7.30556 11.1727 7.54375Z" fill="white"/>
</svg>
