<svg width="25" height="25" viewBox="0 0 25 25" fill="none" xmlns="http://www.w3.org/2000/svg">
<path d="M24.196 0.00881806V24.2048H9.12207C9.15494 23.6684 9.1878 23.1127 9.25503 22.5629C9.3611 21.7024 9.48062 20.948 9.75102 20.0008C9.80331 19.8021 9.89593 19.7558 10.0692 19.7887C10.38 19.835 10.6847 19.8738 10.9955 19.9276C11.0478 19.9336 11.115 19.9679 11.1344 20.0142C11.3256 20.3788 11.6513 20.5565 12.0143 20.6835C12.5044 20.8419 12.9869 20.8225 13.4978 20.7358C14.7288 20.5237 15.8672 20.1009 16.9474 19.5108C17.9468 18.961 18.8267 18.22 19.5946 17.3789C20.0578 16.8695 20.4955 16.3332 20.9855 15.7565C20.8137 15.7162 20.727 15.6833 20.6344 15.6773C20.0981 15.625 19.5618 15.5444 19.0329 15.5444C18.265 15.5309 17.4912 15.504 16.7487 15.6101C15.2263 15.8417 13.7966 16.3586 12.4984 17.1982C11.7171 17.7016 10.982 18.2633 10.8834 19.3225C10.6115 19.2957 10.3874 19.2897 10.1096 19.2434C9.99005 19.2239 9.99752 19.0985 10.011 19.0447C10.1634 18.5681 10.3023 18.0915 10.4935 17.6419C10.9178 16.6424 11.36 15.643 11.8306 14.6629C12.2549 13.7621 12.7046 12.8762 13.1617 11.9947C13.7309 10.9027 14.3404 9.83002 14.9096 8.73794C15.3593 7.84456 15.7895 6.93774 16.2138 6.03091C16.677 5.03744 17.028 4.01259 17.2865 2.95338C17.5315 1.9868 17.6764 1.0008 17.7227 0.00732422H24.196V0.00881806Z" fill="white"/>
<path d="M16.5425 0.00149384C16.523 0.21961 16.5156 0.437726 16.4827 0.649866C16.4827 0.655842 16.4827 0.655842 16.4827 0.663311C16.4827 0.676757 16.4767 0.696178 16.4767 0.709624C16.4708 0.742491 16.4633 0.775358 16.4573 0.796273C16.3124 1.47751 16.1525 2.15278 15.9673 2.82804C15.6237 4.08594 15.0799 5.27064 14.4719 6.42247C13.8623 7.56833 13.1945 8.67982 12.5521 9.79879C12.3206 10.1887 12.0815 10.5727 11.8365 10.9775C11.5587 10.8117 11.2868 10.6668 11.0283 10.4935C10.976 10.4606 10.9222 10.3426 10.9491 10.2888C11.2404 9.65388 11.1747 9.00401 10.9491 8.38253C10.7176 7.73416 10.4262 7.11118 10.129 6.48223C9.75098 5.69492 9.23557 4.98679 8.63202 4.35037C8.15545 3.8484 7.62659 3.37781 7.07682 2.961C6.46131 2.49041 5.79203 2.09451 5.14365 1.67023C5.10481 1.64334 5.03758 1.64334 4.97783 1.62989C4.97185 1.68965 4.95841 1.72999 4.95841 1.7763C4.91209 3.09994 5.06448 4.39668 5.40808 5.66803C5.66654 6.62864 6.05795 7.52799 6.59428 8.37655C7.08429 9.15042 7.59373 9.89888 8.29588 10.495C8.95023 11.0507 9.73754 11.3211 10.5189 10.8192C10.8625 11.0313 11.2136 11.236 11.5646 11.4541C11.5392 11.5004 11.5318 11.5273 11.5123 11.5527C10.97 12.5521 10.3934 13.5381 9.87797 14.551C9.44174 15.4056 9.05779 16.2915 8.67385 17.1789C8.1913 18.3173 7.81931 19.496 7.53546 20.7001C7.25759 21.8579 7.08578 23.0232 6.99914 24.2019H0V0H16.5425V0.00149384Z" fill="white"/>
<path d="M16.5425 0.00149384C16.523 0.21961 16.5156 0.437726 16.4827 0.649866C16.4827 0.655842 16.4827 0.655842 16.4827 0.663311C16.4827 0.676757 16.4767 0.696178 16.4767 0.709624C16.4708 0.742491 16.4633 0.775358 16.4573 0.796273C16.3124 1.47751 16.1525 2.15278 15.9673 2.82804C15.6237 4.08594 15.0799 5.27064 14.4719 6.42247C13.8623 7.56833 13.1945 8.67982 12.5521 9.79879C12.3206 10.1887 12.0815 10.5727 11.8365 10.9775C11.5587 10.8117 11.2868 10.6668 11.0283 10.4935C10.976 10.4606 10.9222 10.3426 10.9491 10.2888C11.2404 9.65388 11.1747 9.00401 10.9491 8.38253C10.7176 7.73416 10.4262 7.11118 10.129 6.48223C9.75098 5.69492 9.23557 4.98679 8.63202 4.35037C8.15545 3.8484 7.62659 3.37781 7.07682 2.961C6.46131 2.49041 5.79203 2.09451 5.14365 1.67023C5.10481 1.64334 5.03758 1.64334 4.97783 1.62989C4.97185 1.68965 4.95841 1.72999 4.95841 1.7763C4.91209 3.09994 5.06448 4.39668 5.40808 5.66803C5.66654 6.62864 6.05795 7.52799 6.59428 8.37655C7.08429 9.15042 7.59373 9.89888 8.29588 10.495C8.95023 11.0507 9.73754 11.3211 10.5189 10.8192C10.8625 11.0313 11.2136 11.236 11.5646 11.4541C11.5392 11.5004 11.5318 11.5273 11.5123 11.5527C10.97 12.5521 10.3934 13.5381 9.87797 14.551C9.44174 15.4056 9.05779 16.2915 8.67385 17.1789C8.1913 18.3173 7.81931 19.496 7.53546 20.7001C7.25759 21.8579 7.08578 23.0232 6.99914 24.2019H0V0H16.5425V0.00149384Z" fill="white"/>
<path d="M24.196 0.00857392V24.2045H9.12207C9.15494 23.6682 9.1878 23.1124 9.25503 22.5627C9.3611 21.7022 9.48062 20.9477 9.75102 20.0006C9.80331 19.8019 9.89593 19.7555 10.0692 19.7884C10.38 19.8347 10.6847 19.8736 10.9955 19.9273C11.0478 19.9333 11.115 19.9677 11.1344 20.014C11.3256 20.3785 11.6513 20.5563 12.0143 20.6833C12.5044 20.8416 12.9869 20.8222 13.4978 20.7356C14.7288 20.5234 15.8672 20.1006 16.9474 19.5105C17.9468 18.9608 18.8267 18.2198 19.5946 17.3787C20.0578 16.8692 20.4955 16.3329 20.9855 15.7563C20.8137 15.7159 20.727 15.6831 20.6344 15.6771C20.0981 15.6248 19.5618 15.5441 19.0329 15.5441C18.265 15.5307 17.4912 15.5038 16.7487 15.6098C15.2263 15.8414 13.7966 16.3583 12.4984 17.1979C11.7171 17.7014 10.982 18.2631 10.8834 19.3223C10.6115 19.2954 10.3874 19.2894 10.1096 19.2431C9.99005 19.2237 9.99752 19.0982 10.011 19.0444C10.1634 18.5679 10.3023 18.0913 10.4935 17.6416C10.9178 16.6422 11.36 15.6427 11.8306 14.6627C12.2549 13.7618 12.7046 12.8759 13.1617 11.9945C13.7309 10.9024 14.3404 9.82977 14.9096 8.7377C15.3593 7.84432 15.7895 6.93749 16.2138 6.03067C16.677 5.03719 17.028 4.01235 17.2865 2.95314C17.5315 1.98656 17.6764 1.00055 17.7227 0.00708008H24.196V0.00857392Z" fill="white"/>
</svg>
