<svg width="31" height="24" viewBox="0 0 31 24" fill="none" xmlns="http://www.w3.org/2000/svg">
<path d="M12.4431 14.0599C12.4053 14.2584 12.6132 15.421 12.4431 16.3852C12.1596 17.1034 12.0638 17.5382 12.6221 17.973C13.1804 18.4079 17.3517 20.3737 19.7965 22.995C20.7323 23.9464 21.2048 22.765 20.5148 22.2167C20.3258 22.0089 19.4374 21.215 19.4562 20.9408C19.4753 20.6667 19.9855 21.1961 20.1746 21.3945C19.6643 20.3643 20.7795 19.0505 21.9705 20.5344C22.4557 21.0039 22.1153 22.1129 21.6995 22.4153C22.1552 21.9598 21.3624 20.8242 20.7291 21.4575C20.4014 21.7725 21.3025 22.4846 21.5041 22.661C21.7058 22.8374 22.4241 22.2388 22.6762 21.8229C22.8616 21.5647 23.1283 21.3472 23.5142 19.6806C23.6371 19.2489 23.7964 19.0925 24.182 18.7067C24.568 18.3209 30.1934 13.6063 30.8172 11.6214C31.1828 10.588 31.0063 10.2225 30.2313 10.9597C29.4563 11.697 25.1651 14.9106 23.5394 15.3642C21.9137 15.818 21.6302 14.9957 21.8665 14.7972C22.0102 14.6533 25.625 10.7455 21.608 12.8501C20.1369 13.392 18.7002 12.1948 18.3977 11.1236C17.7597 9.08359 17.7802 8.67873 16.331 9.9264C15.5496 10.5691 14.1633 11.2622 13.634 11.4512C12.0462 11.8293 11.4161 13.6063 12.7014 13.7827C13.9868 13.9591 14.6832 13.7575 14.3334 14.1262C13.9838 14.4948 13.4639 14.8256 14.0499 15.1468C14.6359 15.4682 15.7549 16.2623 15.8192 16.3378C15.8835 16.4134 16.4034 16.4797 16.5546 16.1015C16.7059 15.7235 16.5735 15.6195 16.4695 15.5627C16.3655 15.5061 16.479 15.336 16.7248 15.3642C16.9705 15.3927 17.5564 15.1659 17.6983 15.0618C17.8401 14.9578 19.5035 14.6838 19.91 15.2604C19.4486 15.4046 19.3146 15.1059 18.6623 15.336C18.3047 15.4742 17.4363 15.5842 17.0271 16.508C16.7215 17.1979 16.6082 18.622 15.3605 18.2187C14.113 17.8154 12.8306 17.4342 13.0291 16.1771C13.2276 14.9201 13.1425 14.1072 12.4431 14.0599ZM0.615898 12.2074C4.04365 11.111 7.98815 12.2199 11.0002 17.7272C11.2711 18.2565 11.6208 18.1242 11.6019 17.5854C11.668 17.0278 11.5799 14.6878 10.118 12.6157C10.0692 12.5082 10.1212 12.4499 10.1999 12.3712C10.5433 12.1152 13.0796 11.5773 15.9151 9.54831C16.1341 9.39867 17.0807 8.94968 16.9233 7.60441C16.4506 4.28684 13.8041 2.03734 13.0668 1.58363C12.3297 1.12998 12.4116 1.92388 12.4242 2.04367C12.2918 4.60817 11.5218 8.37625 8.77834 10.9471C7.79914 10.6699 7.45257 9.97677 7.45257 9.97677C7.45257 9.97677 11.1513 5.15009 10.1935 1.2938C9.94157 0.210037 9.64537 -0.174394 8.43554 0.0713848C7.2257 0.317102 4.35239 1.22446 4.35239 1.22446C4.35239 1.22446 3.90514 1.39461 4.25798 1.84826C4.61076 2.30197 6.31208 4.01589 4.9259 8.80477C3.66563 8.37625 0.893187 7.84699 0.615898 8.60311C0.338609 9.35929 -0.619193 12.1696 0.615898 12.2074Z" fill="white"/>
</svg>
