<svg width="55" height="55" viewBox="0 0 55 55" fill="none" xmlns="http://www.w3.org/2000/svg">
<g clip-path="url(#clip0_50_111)">
<path d="M51.769 37.4046C50.912 37.4046 50.0901 37.0642 49.4841 36.4582C48.8781 35.8522 48.5377 35.0303 48.5377 34.1733C48.5377 33.3164 48.8781 32.4945 49.4841 31.8885C50.0901 31.2825 50.912 30.9421 51.769 30.9421C52.6259 30.9421 53.4478 31.2825 54.0538 31.8885C54.6598 32.4945 55.0002 33.3164 55.0002 34.1733C55.0002 35.0303 54.6598 35.8522 54.0538 36.4582C53.4478 37.0642 52.6259 37.4046 51.769 37.4046V37.4046ZM0.34396 45.4369C-0.041378 46.2027 -0.106715 47.0902 0.162321 47.9042C0.431358 48.7182 1.01273 49.392 1.77854 49.7773C2.54436 50.1626 3.43188 50.228 4.24586 49.9589C5.05985 49.6899 5.73362 49.1085 6.11896 48.3427C6.11896 48.3427 24.1085 11.6485 38.789 11.3346C48.4827 11.1283 48.4873 24.2642 48.4873 24.2642C48.4873 25.1212 48.8277 25.943 49.4337 26.549C50.0397 27.155 50.8616 27.4954 51.7185 27.4954C52.5755 27.4954 53.3974 27.155 54.0034 26.549C54.6094 25.943 54.9498 25.1212 54.9498 24.2642C54.9498 24.2642 55.0804 5.05771 38.8623 4.88355C20.0844 4.28771 0.348543 45.4369 0.348543 45.4369H0.34396Z" fill="white"/>
</g>
<defs>
<clipPath id="clip0_50_111">
<rect width="55" height="55" fill="white"/>
</clipPath>
</defs>
</svg>
